<?xml version="1.0" encoding="utf-8"?>
<svg version="1.1" id="Layer_1" xmlns="http://www.w3.org/2000/svg" xmlns:xlink="http://www.w3.org/1999/xlink" x="0px" y="0px"
	 viewBox="0 0 164.0117 226.1835" enable-background="new 0 0 164.0117 226.1835" xml:space="preserve">
<g fill="#ffffff">
	<path d="M72.7528,130.7402c-2.7314-0.4072-5.2754,1.4786-5.6807,4.21v-0.0029l-11.623,78.1504H21.5692l-11.623-78.1504
		c-0.4063-2.7285-2.9493-4.6143-5.6817-4.2071c-2.7314,0.4063-4.6172,2.9493-4.209,5.6807l12.2569,82.4141
		c0.3633,2.4463,2.4707,4.2646,4.9453,4.2646h42.5029c2.4746,0,4.582-1.8183,4.9443-4.2646l12.2579-82.4141
		C77.368,133.6895,75.4842,131.1465,72.7528,130.7402z"/>
	<path d="M94.7401,17.3984c-2.8184,12.1006,4.709,24.1934,16.8086,27.0108c12.0996,2.8174,24.1934-4.707,27.0098-16.8076
		c2.8183-12.0996-4.7071-24.1924-16.8067-27.0108C109.6522-2.2256,97.5585,5.2988,94.7401,17.3984z"/>
	<path d="M147.0184,54.294c-3.3418-1.5713-6.123-2.1319-7.5752-2.3379c-0.622-0.1621-1.2724-0.2569-1.9453-0.2569H98.8612
		c-0.5957,0-1.1729,0.0733-1.7295,0.2012c-3.2764,0.291-11.5947,1.6172-21.4385,7.6768
		c-12.0888,7.4023-26.0478,21.9961-35.2549,48.832c-1.4414,4.1787,0.7784,8.7314,4.9561,10.1728
		c0.8643,0.2979,1.7432,0.4395,2.6084,0.4395c3.3184,0,6.4189-2.082,7.5625-5.3955c8.2949-23.9141,19.6611-34.918,28.5225-40.4287
		c2.582-1.5918,4.9668-2.7002,7.0468-3.4893v39.1729v18.9394v86c0,6.8291,5.5352,12.3633,12.3633,12.3633
		c6.8281,0,12.3633-5.5342,12.3633-12.3633v-78.2724h4.6367v78.2724c0,6.8291,5.5352,12.3633,12.3633,12.3633
		c6.8281,0,12.3633-5.5342,12.3633-12.3633v-80.8135c0.0908,0.003,0.1816,0.0137,0.2715,0.0137c3.0771,0,6.0117-1.7832,7.33-4.7793
		c8.0079-18.2422,11.169-32.0547,11.1856-43.0303c0.0068-7-1.3408-12.8632-3.6416-17.5869
		C156.9344,60.4922,151.4374,56.3477,147.0184,54.294z M145.2245,102.6006V73.2627c0.334,0.5332,0.6562,1.1211,0.9599,1.793
		c1.0079,2.2646,1.8243,5.4687,1.8282,10.1552C148.0224,89.6348,147.2518,95.376,145.2245,102.6006z"/>
	<path d="M32.7147,138.8174c-0.4834,1.5771,0.2442,3.6172,1.6172,4.5322l7.0078,4.6719c1.3731,0.915,3.6084,0.8994,4.9688-0.0352
		l5.7226-3.9345c1.3594-0.9346,2.5342-3.0479,2.6113-4.6963l0.0547-1.1729c0.0762-1.6484-0.7617-4.0029-1.8632-5.2314
		l-3.4971-3.9063c-1.1006-1.2285-3.2676-1.7675-4.8164-1.1982l-6.7022,2.4687c-1.5488,0.5694-3.2109,2.3272-3.6943,3.9043
		L32.7147,138.8174z"/>
</g>
</svg>
