<?xml version="1.0" encoding="utf-8"?>
<!-- Generator: Adobe Illustrator 23.0.2, SVG Export Plug-In . SVG Version: 6.00 Build 0)  -->
<svg version="1.1" id="Layer_1" xmlns="http://www.w3.org/2000/svg" xmlns:xlink="http://www.w3.org/1999/xlink" x="0px" y="0px"
	 viewBox="0 0 395.9205 266.4462" enable-background="new 0 0 395.9205 266.4462" xml:space="preserve">
<g fill="#ffffff">
	<path d="M239.8433,123.6366c1.6406,0.0015,3.3652,0.3755,5.169,0.9541l14.7627-12.7969l8.2841,17.5215l-13.0517,11.3145
		l-2.4268-2.7989c-0.2002,2.6641-0.8701,5.5274-2.0664,8.3965c1.6885,0.4834,3.4356,1.1748,5.1592,1.8535
		c1.8789,0.7559,3.7363,1.4844,5.3125,1.9239l5.8955-5.1094c0.6436-1.5254,1.459-2.7373,2.46-3.6504
		c1.6982-1.5498,3.8535-2.1543,6.1503-2.1504c2.3721,0,4.9463,0.5947,7.6895,1.4375c2.0762,0.6367,3.6611,1.9785,4.7158,3.7471
		c0.2862-0.0723,0.5586-0.1514,0.8526-0.2197c3.5879-0.8321,5.7627-1.5645,6.5976-2.0147
		c-0.0312-0.0176-0.0644-0.0351-0.0986-0.0537c-0.499-0.2666-1.3213-0.585-2.3203-0.9375
		c-2.0069-0.7051-4.7471-1.5625-7.5176-2.7549c-5.4815-2.3545-11.4131-6.1836-11.4531-13.2226c0-0.1402,0.0019-0.2779,0.0058-0.4053
		c0.0801-2.5073,0.6533-4.3403,1.7696-5.583c1.1201-1.2446,2.7031-1.7105,4.3203-1.7041c3.0527,0.0151,6.5879,1.438,10.0371,2.7978
		c3.4228,1.3755,6.7793,2.6787,8.8896,2.6558c1.6084-0.1025,2.2403-0.3936,2.7012-2.2202c0.7588-3.791,2.0791-6.4507,3.9707-8.1724
		c1.8887-1.7261,4.2822-2.3999,6.8525-2.3965c2.6534,0.001,5.5498,0.668,8.6397,1.6192c4.5312,1.3901,6.9775,5.7812,6.956,10.9404
		c0,6.3477-3.4765,14.1021-11.0595,20.3892c-2.1856,1.7773-2.8965,3.0625-2.8477,3.664c0.0029,0.3809,0.1748,0.7735,0.7744,1.3321
		c0.5928,0.5468,1.5674,1.1523,2.8233,1.8046c2.5215,1.3106,6.1611,2.8291,10.3261,5.0039
		c8.3379,4.3487,18.8223,11.377,27.1172,24.9317c0.1387,0.2275,0.2549,0.4463,0.3897,0.6719
		c1.0566-1.3389,2.1123-2.6787,3.1699-4.0176c-0.3867-0.3057-0.7627-0.6211-1.1475-0.9277l11.9268-5.6377L319.8842,64.7313
		l-43.4277,20.5332c-1.9746-3.0962-3.9199-6.2119-5.8027-9.3701l-8.4424,7.3194c1.3789,2.2832,2.791,4.5429,4.2187,6.791
		l-13.8584,6.5522l4.541,9.604l-18.2627,15.8311l-9.1709-10.5791l-8.3105,7.2055l10.3662,11.9585
		c0.5967-1.8955,1.3779-3.3686,2.3613-4.4795C235.6382,124.3523,237.6949,123.6243,239.8433,123.6366z M352.0308,148.7391
		l-4.5107,1.9688l-3.4131-8.6104l3.7812-2.1181L352.0308,148.7391z M316.9546,72.4882l28.542,62.4384l-4.6582,2.6983
		l-29.7236-63.3643L316.9546,72.4882z"/>
	<path d="M190.4805,192.3192l-6.5054-3.622l4.0577-7.2872c0.0058,0.003,0.0117,0.0059,0.0175,0.0088
		c1.6602,0.8496,4.2945,2.8692,6.7276,4.8672c1.2876-2.0293,2.4189-4.0185,3.4731-5.9521
		c-1.6645-1.9912-3.2011-3.9815-3.9302-5.3301c-0.4736-0.876-0.9023-1.7188-1.31-2.5361l10.501-18.8584
		c3.2837,2.3759,6.6167,4.6757,9.9731,6.9433c2.0161-1.1904,4.3272-2.2051,7.0547-2.9951c2.9443-0.8379,4.6885-1.5801,5.2891-1.9932
		c-0.229-0.1484-0.4556-0.3017-0.6836-0.4492c-0.3506-0.1806-0.7725-0.3779-1.2613-0.5898
		c-1.6132-0.7002-3.8418-1.5596-6.0991-2.7569c-2.9443-1.5478-6.022-3.7744-7.7988-7.0585
		c-5.8184-4.209-11.5318-8.5704-17.1065-13.1211l-5.4355,9.7617c3.6777,2.9697,7.4165,5.8496,11.1943,8.6738l-8.9521,16.0801
		c-0.8975-1.4463-1.9292-2.8174-3.2827-4.1406c-3.8238-3.7373-17.8999-17.4991-17.8999-17.4991
		c-0.709-0.6933-1.8321-0.6963-2.5088-0.0058l-9.1245,9.333c-0.6739,0.6904-0.6451,1.8135,0.0634,2.5078
		c0,0,14.0762,13.7607,17.9004,17.498c2.3999,2.3467,4.9234,3.6895,7.7686,5.0303l-3.8696,6.9492l-12.2315-6.8086l-5.3511,9.6094
		l22.6475,12.6094c0.9468-1.9346,2.2002-3.7871,3.7861-5.5C188.6285,194.5595,189.585,193.4353,190.4805,192.3192z"/>
	<path d="M233.9322,237.535c-2.9317-1.0039-5.5684-2.1376-7.9121-3.3759c-9.3057-4.9141-14.085-11.583-14.1011-18.3164
		c-0.0103-4.5879,2.2334-9.045,6.4517-12.7334c8.288-7.2715,11.9033-14.2979,16.1562-20.3379
		c3.834-5.4737,8.3369-10.0889,17.0654-12.7637c-3.3056-2.1269-6.2295-3.6338-8.3759-5.0107
		c-2.1045-1.3614-3.7588-2.7002-3.8096-4.8506c0.0215-1.4844,0.8232-2.878,2.3096-4.5127c-0.3106-0.9512-0.4932-1.9824-0.5-3.1104
		c0-0.1328,0.0048-0.2558,0.0087-0.3613c0.0694-2.2373,0.5791-3.8896,1.5957-5.0205c1.0196-1.1338,2.462-1.5537,3.9151-1.5469
		c0.581,0.0029,1.1836,0.0723,1.7949,0.1748c1.4443-3.3554,2.127-6.6914,2.1221-9.6045c-0.0098-4.6621-1.7344-8.0341-4.417-9.0244
		c-2.4092-0.9199-4.5947-1.5088-6.3897-1.5029c-1.7539,0.0166-3.0879,0.5005-4.2558,1.7925
		c-1.167,1.2973-2.1485,3.5468-2.7197,7.1001c-0.2002,1.2392-0.6309,2.2246-1.3555,2.9052
		c-0.7246,0.6866-1.6812,0.9561-2.6079,0.9502c-2.419-0.0322-5.1367-1.4765-7.9312-2.8242
		c-2.7578-1.3681-5.5649-2.6465-7.3784-2.6172c-0.9707,0.0215-1.5561,0.2617-2.0913,0.9619
		c-0.5371,0.7159-0.9771,2.0967-1.0298,4.3623c-0.0019,0.1192-0.0039,0.2334-0.0039,0.3438
		c0.0171,5.1006,3.0249,8.207,6.6704,10.4863c3.6568,2.2715,7.7129,3.419,9.6734,4.668c0.5395,0.373,1.1562,0.8125,1.2075,1.7705
		c-0.1045,1.2109-0.9551,1.6504-1.9781,2.1934c-1.0874,0.5263-2.6704,1.0791-4.9433,1.747
		c-9.23,2.7237-13.2153,7.6944-17.0283,14.3116c-3.7842,6.6054-7.2134,14.8154-15.022,23.2568
		c-3.5459,3.8379-5.311,8.2822-5.3076,12.7988c0.0097,6.6035,3.8183,13.4805,11.938,18.7832
		c8.1098,5.293,20.5166,8.9434,37.4633,8.9209C233.4019,237.5487,233.6734,237.536,233.9322,237.535z M221.0049,141.539
		l-3.0039-3.2471l9.6719,4.0722l6.3315-1.3408l0.502,1.7491l-6.2481,1.7578L221.0049,141.539z M209.0489,177.8036l3.2407-7.5039
		l6.2461-3.2578l-3.9951,4.2549l-3.7403,8.0048l-3.7436,5.254l-2.751-0.9961L209.0489,177.8036z"/>
	<path d="M359.5258,198.4266c-0.0039-4.9921-1.8476-10.872-5.998-17.6484c-7.0586-11.5234-15.6768-18.1426-23.1924-22.4795
		c-7.54-4.3701-13.8467-6.2763-16.7178-8.8291c-0.8203-0.7383-1.4267-1.6855-1.4238-2.8056
		c0.0459-1.7862,1.2959-3.2989,3.5703-5.209c7.1973-5.9532,10.3496-13.2305,10.335-18.8448
		c-0.0313-4.6093-2.0303-7.9399-5.5459-9.0322c-2.9971-0.9287-5.7373-1.5351-8.0459-1.5283
		c-2.2549,0.0088-4.0508,0.5527-5.5108,1.8726c-1.458,1.3266-2.6445,3.5449-3.3545,7.0874
		c-0.4296,2.6103-2.5029,3.9248-4.6591,3.8271c-2.8106-0.0195-6.1846-1.4424-9.6299-2.7964
		c-3.418-1.3706-6.8858-2.6767-9.2969-2.6553c-1.291,0.0098-2.1797,0.3248-2.8408,1.0464c-0.6631,0.7261-1.1836,2.0513-1.252,4.3076
		c-0.0039,0.1148-0.0078,0.2256-0.0058,0.3345c-0.0049,4.9917,3.706,8.1675,8.2763,10.4751
		c4.5596,2.293,9.6172,3.4629,11.9512,4.6758c0.627,0.3779,1.3633,0.709,1.4649,1.8184c-0.0137,0.6855-0.4297,1.1269-0.8174,1.4179
		c-0.4102,0.3037-0.9092,0.5479-1.5664,0.8106c-1.3125,0.5146-3.2539,1.0674-6.0557,1.7353
		c-0.1582,0.0371-0.3018,0.0801-0.458,0.1192c0.4512,1.289,0.6816,2.7138,0.6748,4.2109c0.001,1.9111-0.3613,3.9629-1.0879,6.0576
		c5.334-2.4463,9.2051-3.5088,9.2051-3.5088c-4.5449,3.3614-8.4873,6.3243-11.9551,9.0059
		c-1.5254,2.293-3.5156,4.5361-6.0059,6.6006c-1.9296,1.5674-2.5293,2.6924-2.4804,3.1601c0.0019,0.295,0.1289,0.6114,0.6494,1.0967
		c0.5127,0.4717,1.3672,1.0069,2.4775,1.5811c2.2266,1.1601,5.4541,2.5078,9.1504,4.4355
		c7.3985,3.8604,16.7129,10.1035,24.0762,22.1367c3.7978,6.2032,5.584,11.7305,5.5937,16.6211
		c0.0079,2.2364-0.3798,4.3174-1.0947,6.2471c11.7686-0.9365,21.8692-3.3389,29.1182-7.2383
		C355.0416,212.2206,359.519,206.3183,359.5258,198.4266z M285.2359,125.9608l-1.5029-2.248l9.5048,3.4883l7,0.2417l6.4991-0.7578
		l-0.7471,2.7509l-6.4981,1.0078l-6.5009-0.4921L285.2359,125.9608z"/>
	<path d="M28.0264,75.0311c12.0943-2.831,19.605-14.9336,16.7739-27.0297c-2.833-12.0962-14.9355-19.608-27.0317-16.774
		C5.6744,34.0585-1.8383,46.1615,0.9966,58.2577C3.8296,70.3539,15.9283,77.8646,28.0264,75.0311z"/>
	<path d="M86.438,205.6268v-0.0019c-5.9091-0.6387-10.1318-2.0313-13.2002-3.669c-4.5566-2.497-6.9223-5.4052-8.7592-9.3603
		c-1.7764-3.9268-2.628-9.0361-2.6231-14.416c-0.0161-5.252,0.7705-10.6514,1.73-15.1533c4.46-2.3663,8.1577-6.8252,9.7568-15.1084
		c1.6162-14.0245,1.6172-24.4292-0.3159-35.2662c5.7144,7.7388,10.6973,17.9019,13.0567,31.3511
		c0.6772,3.8926,4.0595,6.6358,7.8808,6.6309c0.4522,0,0.9102-0.0391,1.3711-0.1192c4.3525-0.7578,7.2686-4.8984,6.5112-9.2519
		c-4.3452-25.1641-17.0175-41.8032-28.5239-51.7593c-5.7617-5.0024-11.2192-8.4116-15.3164-10.5991
		c-5.3198-3.8408-11.4824-4.8452-16.3804-3.6187c-8.5327,2.1392-12.2719,14.0557-9.3906,24.0025
		c0.5796,2.9443,1.2544,6.1684,1.936,9.5664c4.3716-8.6611,4.7457-16.8135,4.7471-16.8926c0.148-5.4917,4.5322-9.7671,9.9805-9.7734
		l0.2549,0.0034c5.5112,0.1313,9.8886,4.7231,9.7607,10.2334c-0.0625,1.7178-0.4458,7.6997-2.8545,15.4424
		c-3.4941,11.1855-9.7236,20.9204-18.0205,28.184c0.2432,4.7364,0.1694,9.4385-0.3896,13.9532
		c-10.1045,15.2851-26.4258,46.7363-30.0284,94.2744c-0.52,6.8818,4.6368,12.8857,11.5225,13.4062
		c0.3262,0.0254,0.6504,0.0371,0.9717,0.0362c6.4678-0.0069,11.9399-4.9981,12.436-11.5557
		c1.3286-17.5205,4.5645-32.4482,8.4839-44.8252c1.3311,3.2461,3.0498,6.4424,5.2505,9.5176
		c3.7173,5.1748,8.8423,9.7832,15.1743,13.1494c6.3345,3.3857,13.7861,5.5576,22.2959,6.4736
		c6.8633,0.7403,13.0274-4.2246,13.7691-11.0869C98.2657,212.5302,93.3018,206.3651,86.438,205.6268z"/>
	<path d="M56.9136,92.3793c0.1055-4.416-3.3906-8.0825-7.8066-8.188c-4.4092-0.1055-8.0703,3.3765-8.188,7.7842l0,0l-0.0015,0.0205
		l0.001,0.0019c0-0.0004,0-0.0009,0-0.0019h0.001c0,0.001,0,0.0015,0,0.0024l-0.001-0.0005
		c-0.0122,0.6534-0.5625,9.2066-5.0967,18.0347c-2.2925,4.4912-5.5454,9.0552-10.2392,12.9941
		c-4.7051,3.9346-10.8687,7.3169-19.4082,9.3316c-4.3028,1.0098-6.9712,5.3164-5.9605,9.6182
		c0.8662,3.6884,4.1582,6.1767,7.793,6.1728c0.6015-0.001,1.2129-0.0703,1.8237-0.2129c11.1787-2.6113,20.0069-7.418,26.666-13.1885
		c10.0205-8.6743,15.0791-19.2329,17.6519-27.4746C56.7247,98.9983,56.8931,92.8953,56.9136,92.3793z"/>
	<path d="M317.0503,217.5263c-0.0039-4.3946-1.6289-9.585-5.2998-15.5801c-6.2431-10.1914-13.8642-16.043-20.5117-19.8819
		c-6.6758-3.871-12.248-5.5439-14.8349-7.8378c-0.7413-0.668-1.3018-1.5381-1.3008-2.5713c0.0459-1.6524,1.1836-3.0059,3.206-4.7041
		c6.3565-5.2569,9.1319-11.6787,9.1182-16.6123c-0.0322-4.0528-1.7773-6.9454-4.8359-7.8946
		c-2.6524-0.8203-5.0704-1.3545-7.0967-1.3496c-1.9815,0.0088-3.5381,0.4824-4.8067,1.6319
		c-1.2685,1.1513-2.3134,3.0908-2.9375,6.2168c-0.3779,2.3583-2.2998,3.58-4.2412,3.4824
		c-2.5293-0.0196-5.5205-1.2862-8.5752-2.4854c-3.0273-1.2148-6.0966-2.3652-8.1953-2.3457
		c-1.1269,0.0098-1.876,0.2813-2.4355,0.8906c-0.5625,0.6133-1.0186,1.7579-1.0801,3.7432c-0.0029,0.1094-0.0068,0.207-0.0068,0.292
		c-0.0049,4.3574,3.2334,7.1416,7.2724,9.1816c4.0274,2.0264,8.4951,3.0567,10.5928,4.1446
		c0.5615,0.3437,1.2559,0.6396,1.3574,1.7109c-0.0117,0.6641-0.4131,1.082-0.7685,1.3486c-0.375,0.2793-0.8262,0.4991-1.4141,0.7334
		c-1.1719,0.462-2.8975,0.9522-5.3779,1.543c-10.1963,2.4492-14.5557,6.8838-18.7168,12.7432
		c-4.1377,5.8564-7.9165,13.1806-16.4742,20.6855c-3.8891,3.417-5.7714,7.3115-5.7685,11.2295
		c-0.0029,5.7149,4.1001,11.8174,13.0347,16.5508c8.915,4.7197,22.5664,7.9717,41.1728,7.9473
		c2.9082-0.0039,5.9356-0.087,9.0889-0.2559c11.748-0.626,21.8291-2.8281,28.8584-6.6094
		C313.1138,229.661,317.0396,224.4735,317.0503,217.5263z M251.2906,153.5213c0,0,16.6904,6.9121,24.4033-2.3028
		C283.4097,141.9989,273.0376,170.1981,251.2906,153.5213z M227.233,209.5878c4.8877-24.1856,35.0009-32.419,35.0009-32.419
		l-8.3466,5.6641l-9.9922,6.5127l-7.3233,7.1748L227.233,209.5878z"/>
	<polygon points="157.7842,234.2831 169.7867,236.2683 175.1114,229.5946 168.439,224.2703 160.4415,226.2802 	"/>
	<polygon points="148.2901,239.9608 142.1929,233.3026 134.8882,235.8113 132.4639,245.8143 143.4292,248.3007 	"/>
	<polygon points="111.1041,223.6171 119.2989,225.663 122.9312,218.8065 118.3741,213.3309 112.9156,215.3925 	"/>
	<polygon points="144.4312,217.9657 137.7681,221.3065 137.774,225.9735 144.773,224.9657 147.7715,223.9618 148.4341,220.2938 	"/>
	<polygon points="360.4341,220.037 361.106,223.703 364.108,224.6991 371.1089,225.6913 371.1031,221.0243 364.4312,217.6991 	"/>
	<polygon points="374.5738,196.3943 369.1519,193.6933 365.9048,195.5927 366.4507,198.5712 368.8892,199.3808 374.5777,200.1863 	
		"/>
	<polygon points="334.1226,239.0692 334.7847,235.4013 330.7818,233.0731 324.1197,236.414 324.1255,241.0809 331.1246,240.0722 	
		"/>
	<polygon points="318.4791,258.7548 325.4781,257.746 328.476,256.7431 329.1402,253.0751 325.1373,250.747 318.4732,254.0878 	"/>
	<polygon points="309.8003,246.4315 310.4615,242.7645 306.4585,240.4353 299.7964,243.7772 299.8022,248.4433 306.8052,252.4363 	
		"/>
	<polygon points="291.775,261.1581 291.7779,264.0096 298.3414,266.4462 301.1519,262.7762 301.774,260.5349 298.022,259.1132 	"/>
	<polygon points="173.753,208.5966 174.4156,204.9296 170.4126,202.6005 163.7496,205.9423 163.7554,210.6083 170.7544,209.5995 	
		"/>
	<polygon points="200.7256,241.5633 180.3604,242.455 178.6348,248.9579 188.606,252.412 196.8355,249.369 205.9415,254.5575 
		212.4371,251.0829 214.1636,245.0136 203.7642,245.4599 	"/>
	<polygon points="363.5113,247.0321 369.2232,243.9783 374.1743,243.9725 378.3618,241.3007 377.5952,237.1112 369.2164,238.6443 
		365.0219,236.3641 355.1197,237.5193 348.2613,236.7655 347.1245,242.1005 354.7486,245.9003 	"/>
	<path d="M282.7056,257.4109c0,0,1.0664-0.0117,1.3203-0.0107c0,0,1.6407,0.0215,1.6455-0.8828l0.0118-3.6914
		c0.0019-0.9082-1.6387-0.8946-1.6387-0.8946c-0.2539-0.0039-1.3203-0.0244-1.3203-0.0244l-1.0625-0.0234
		c0,0-11.8946-0.4961-15.9434-1.7676c-5.6328-1.7695-9.415-3.8232-14.7646-3.8418c-5.3457-0.0176-25.0303-0.0869-25.0303-0.0869
		c-0.9922-0.0029-1.7998,0.7764-1.8042,1.7441l-0.0459,13.0508c-0.0015,0.9658,0.8003,1.751,1.7934,1.7559
		c0,0,19.6836,0.0683,25.0313,0.0869c5.3477,0.0185,9.1436-2.0088,14.79-3.7383c4.0557-1.2441,15.9551-1.6562,15.9551-1.6562
		L282.7056,257.4109z"/>
	<path d="M173.5,76.5692c0.2251-0.6689,0.3326-1.331,0.3296-1.9765c0.0015-0.5293-0.0722-1.0459-0.2046-1.542l-1.9321,0.5112
		c0.0913,0.3462,0.1387,0.6846,0.1387,1.0332c0.001,0.4243-0.0689,0.8608-0.2285,1.3384L173.5,76.5692z"/>
	<path d="M141.9883,103.1659c0.2657-0.7773,0.6709-1.5859,1.2393-2.4204l-1.6509-1.1274c-0.6606,0.9677-1.1518,1.9365-1.4805,2.9043
		l1.8921,0.6455V103.1659z"/>
	<path d="M140.2554,109.0613l1.8672-0.7197c-0.3291-0.8526-0.5137-1.709-0.5381-2.5801l-1.999,0.0576
		C139.6172,106.9363,139.8545,108.0223,140.2554,109.0613z"/>
	<path d="M149.752,116.5995c-0.8232-0.5645-1.6089-1.1484-2.3462-1.748l-1.2598,1.5537c0.7832,0.6367,1.6119,1.25,2.4712,1.8418
		L149.752,116.5995z"/>
	<path d="M145.9307,95.1029c-0.8701,0.6939-1.6426,1.3853-2.3237,2.0772l1.4238,1.4043c0.6182-0.628,1.3316-1.2681,2.146-1.9151
		L145.9307,95.1029z"/>
	<path d="M161.125,59.4135c0.5137,0.9384,1.0655,1.8154,1.6387,2.6362l1.6411-1.1436c-0.5376-0.7695-1.0522-1.5849-1.5263-2.4536
		L161.125,59.4135z"/>
	<path d="M159.3194,124.0843l0.8164-1.8252c-0.8853-0.3965-1.7871-0.8159-2.6939-1.2574l-0.8779,1.7969
		C157.4942,123.2523,158.4166,123.6815,159.3194,124.0843z"/>
	<path d="M166.1231,82.1698c-0.7129,0.5567-1.5015,1.1397-2.3716,1.7495L164.9,85.556c0.8945-0.6264,1.7114-1.228,2.4545-1.809
		L166.1231,82.1698z"/>
	<path d="M161.2945,85.5766c-0.7866,0.5117-1.6231,1.0415-2.5137,1.5874l1.0469,1.7041c0.9053-0.5562,1.7563-1.0943,2.5566-1.6163
		L161.2945,85.5766z"/>
	<path d="M170.7017,128.392l0.5718-1.9175c-0.002,0-1.0708-0.3184-2.8281-0.9312l-0.6558,1.8907
		C169.5801,128.0551,170.689,128.3881,170.7017,128.392z"/>
	<path d="M169.7076,81.7577c0.8623-0.7983,1.5742-1.5601,2.1567-2.2983l-1.5737-1.2369c-0.5005,0.6368-1.1402,1.3257-1.9429,2.0669
		L169.7076,81.7577z"/>
	<path d="M168.67,68.996c0.709,0.7866,1.3344,1.5254,1.8335,2.228l1.6294-1.1601c-0.5723-0.8047-1.2461-1.5933-1.9766-2.4039
		L168.67,68.996z"/>
	<path d="M165.6441,124.5238c-0.8633-0.3271-1.7944-0.6929-2.7725-1.0932l-0.7617,1.8496c0.9976,0.4087,1.9463,0.7807,2.8247,1.1137
		L165.6441,124.5238z"/>
	<path d="M151.0293,91.681c-0.9301,0.5386-1.7963,1.0767-2.6015,1.6128l1.1084,1.6651c0.7671-0.5113,1.5981-1.0269,2.4951-1.5464
		L151.0293,91.681z"/>
	<path d="M164.6363,64.4999c0.6777,0.8144,1.355,1.5742,2.0102,2.291l1.4761-1.3486c-0.6426-0.7041-1.2998-1.4395-1.9463-2.2198
		L164.6363,64.4999z"/>
	<path d="M154.8003,119.6498c-0.8676-0.4663-1.7295-0.9551-2.5717-1.4605l-1.0313,1.7149c0.8735,0.5239,1.7612,1.0273,2.6563,1.5073
		L154.8003,119.6498z"/>
	<path d="M156.2261,88.703c-0.8218,0.4844-1.6816,0.9839-2.5805,1.4971l0.9926,1.7368c0.9063-0.5171,1.7749-1.0205,2.6055-1.5112
		L156.2261,88.703z"/>
	<path d="M143.4341,110.7483l-1.6333,1.1519c0.5889,0.8379,1.2744,1.6426,2.0362,2.4165l1.4253-1.4033
		C144.566,112.2045,143.9527,111.4818,143.4341,110.7483z"/>
	<path d="M162.5406,46.2435c-1.4175-0.3999-3.1543,1.356-3.8799,3.9253c-0.1528,0.5376-0.2363,1.062-0.2783,1.5679
		c-0.5064-0.2197-1.063-0.4018-1.6641-0.5234c-2.6157-0.5288-4.9731,0.2143-5.2642,1.6577
		c-0.2924,1.4438,1.5933,3.041,4.2105,3.5693c2.0605,0.416,3.9443,0.0362,4.8003-0.8467c1.2891-0.1108,2.6924-1.7319,3.3267-3.9726
		C164.5186,49.0516,163.9581,46.6439,162.5406,46.2435z"/>
	<path d="M118.7125,128.3143c0.0444,1.4727,2.2451,2.5977,4.914,2.5142c2.1016-0.0654,3.8486-0.8662,4.48-1.9214
		c1.23-0.4018,2.2261-2.3008,2.3315-4.6279c0.1216-2.667-0.9736-4.8833-2.4453-4.9502c-1.4721-0.0645-2.7617,2.0425-2.8813,4.709
		c-0.0259,0.5576,0.0132,1.0869,0.0869,1.5898c-0.543-0.0981-1.127-0.1494-1.7393-0.1299
		C120.792,125.58,118.6656,126.8427,118.7125,128.3143z"/>
	<path d="M209.9922,3.7767c-0.5014,0.2452-0.9477,0.5337-1.3535,0.8389c-0.1743-0.5229-0.4096-1.0591-0.7207-1.5874
		c-1.3525-2.3003-3.48-3.5591-4.7485-2.8135c-1.2705,0.7476-1.2012,3.2173,0.1523,5.5186c1.0655,1.812,2.606,2.96,3.8345,3.0083
		c0.9434,0.8867,3.0869,0.8486,5.1797-0.1748c2.3989-1.1738,3.8174-3.1978,3.1694-4.5215
		C214.857,2.723,212.3892,2.6019,209.9922,3.7767z"/>
	<path d="M330.4947,21.9163c0.5781,1.1567,2.6035,1.8628,4.9199,1.6245c2.6562-0.271,4.6875-1.6816,4.5371-3.1465
		c-0.1523-1.4643-2.4248-2.4306-5.081-2.1577c-0.5547,0.0566-1.0733,0.1733-1.5596,0.3198c0.0166-0.5517-0.0186-1.1362-0.127-1.7397
		c-0.4746-2.6255-2.0351-4.5425-3.4843-4.2808c-1.4502,0.2617-2.2383,2.604-1.7647,5.2305
		C328.3091,19.8358,329.358,21.4467,330.4947,21.9163z"/>
	<path d="M290.1695,32.3202c1.6963-2.0605,2.1504-4.4907,1.0127-5.4268c-1.1358-0.9355-3.4336-0.0244-5.128,2.0372
		c-0.3554,0.4311-0.6425,0.8784-0.8857,1.3242c-0.376-0.4043-0.8115-0.7954-1.3135-1.1475
		c-2.1836-1.5347-4.6406-1.8013-5.4873-0.5962c-0.8476,1.2051,0.2364,3.4258,2.4219,4.96c1.7207,1.208,3.5977,1.6162,4.7363,1.1518
		C286.7515,35.0399,288.688,34.119,290.1695,32.3202z"/>
	<path d="M395.9126,97.327c-0.1503-1.4648-2.4248-2.4306-5.081-2.1582c-0.5547,0.0577-1.0733,0.1734-1.5606,0.3199
		c0.0186-0.5518-0.0175-1.1363-0.1269-1.7398c-0.4736-2.625-2.0342-4.542-3.4834-4.2807c-1.4492,0.2617-2.2393,2.6044-1.7637,5.2309
		c0.374,2.0693,1.4238,3.6797,2.5596,4.1494c0.5791,1.1573,2.6025,1.8633,4.9209,1.6245
		C394.0327,100.202,396.064,98.7913,395.9126,97.327z"/>
	<path d="M213.9312,29.2963c0.709,0.7021,1.4355,1.4053,2.1665,2.1054l1.3853-1.4458c-0.7295-0.6962-1.4463-1.3901-2.1441-2.08
		L213.9312,29.2963z"/>
	<path d="M203.2608,100.6547c-0.4785-0.8242-0.9424-1.6875-1.3809-2.586l-1.7959,0.8785c0.461,0.9433,0.9478,1.8476,1.4468,2.7109
		L203.2608,100.6547z"/>
	<path d="M206.5215,105.5512c-0.5493-0.7295-1.1264-1.5328-1.705-2.4019l-1.6646,1.1104c0.6035,0.9043,1.2031,1.7402,1.7734,2.4965
		L206.5215,105.5512z"/>
	<path d="M197.8428,93.1996c0.2891,1.0015,0.6255,1.98,0.9976,2.9277l1.8623-0.7304c-0.3506-0.896-0.667-1.815-0.937-2.753
		L197.8428,93.1996z"/>
	<path d="M206.8707,69.3725c0.6982-0.6182,1.4531-1.232,2.2651-1.8394l-1.1992-1.6006c-0.8526,0.6382-1.648,1.2852-2.3902,1.94
		l1.3223,1.5H206.8707z"/>
	<path d="M215.7618,61.1663l0.8969,1.7856v0.002c0.0108-0.0064,0.0205-0.0103,0.0303-0.0166
		c0.9434-0.4717,1.8296-0.9439,2.6621-1.4155l-0.9853-1.7412c-0.8013,0.4536-1.6563,0.9091-2.5738,1.3691
		C215.7823,61.1561,215.7725,61.16,215.7618,61.1663z"/>
	<path d="M229.9839,50.3973c0.1675-0.7178,0.2466-1.4356,0.2456-2.1451c-0.0024-0.395-0.0273-0.7876-0.0747-1.1762l-1.9848,0.2407
		c0.0395,0.3125,0.0581,0.6255,0.0586,0.938c0.0009,0.5615-0.0601,1.1225-0.1934,1.6885L229.9839,50.3973z"/>
	<path d="M226.1207,42.223c0.5371,0.837,0.9882,1.6646,1.331,2.4829l1.8438-0.7734c-0.3985-0.9497-0.9053-1.8789-1.4981-2.7949
		L226.1207,42.223z"/>
	<path d="M223.94,36.3212l-1.4634,1.3638c0.6865,0.7373,1.335,1.4726,1.9321,2.208l1.5533-1.2627h-0.002
		C225.3291,37.8539,224.65,37.0858,223.94,36.3212z"/>
	<path d="M221.9683,59.9266c0.9194-0.6054,1.7515-1.2114,2.5039-1.8168l-1.2529-1.5572c-0.6987,0.562-1.479,1.1289-2.3506,1.7036
		L221.9683,59.9266z"/>
	<path d="M218.2701,33.476c0.7246,0.6943,1.4414,1.3886,2.1396,2.0825l1.4082-1.4185h0.002
		c-0.7119-0.7065-1.437-1.4092-2.1656-2.1074L218.2701,33.476z"/>
	<path d="M226.7818,55.9887c0.79-0.8423,1.4355-1.69,1.9473-2.5464l-1.7159-1.0259c-0.4301,0.7183-0.9858,1.4531-1.6899,2.2046
		L226.7818,55.9887z"/>
	<path d="M202.9283,73.6015c0.5537-0.7417,1.1699-1.4781,1.8559-2.2115l-1.4599-1.3657c-0.7334,0.7842-1.3985,1.5772-1.9981,2.3779
		L202.9283,73.6015z"/>
	<path d="M198.2608,77.8432l1.8589,0.7338c0.3408-0.8598,0.749-1.7177,1.2353-2.5761l-1.7383-0.9868
		C199.0826,75.952,198.6333,76.8969,198.2608,77.8432z"/>
	<path d="M196.8326,83.9447l1.9931,0.1685c0.0791-0.9366,0.2256-1.8741,0.4439-2.8159l-1.9478-0.4566
		C197.0811,81.8793,196.92,82.9159,196.8326,83.9447z"/>
	<path d="M197.1377,90.1737l1.9703-0.3462l0.0019,0.002c-0.165-0.9419-0.2773-1.8936-0.3286-2.856l-1.9966,0.1035
		C196.8394,88.1259,196.96,89.1596,197.1377,90.1737z"/>
	<path d="M207.9581,22.2802l1.6899-1.0669v-0.002c-0.5303-0.8408-0.959-1.6714-1.2686-2.4848l-1.8711,0.7094
		C206.8755,20.4022,207.3707,21.3471,207.9581,22.2802z"/>
	<path d="M206.3252,12.8817c-0.354,0.9859-0.5219,1.979-0.5205,2.96c0,0.1235,0.0049,0.2471,0.0093,0.3701l1.9981-0.0864
		c-0.0044-0.0947-0.0064-0.1914-0.0064-0.2862c-0.001-0.7568,0.1231-1.5092,0.4004-2.2788L206.3252,12.8817z"/>
	<path d="M208.9351,111.4363l1.3965-1.4316c-0.002-0.002-0.7822-0.7617-1.9663-2.1548l-1.5249,1.2954
		C208.0767,110.5961,208.9175,111.4179,208.9351,111.4363z"/>
	<path d="M214.0567,64.3417l-0.9873-1.7412c-0.9146,0.52-1.7861,1.0473-2.6133,1.581l1.0859,1.6807
		C212.3345,65.349,213.1734,64.8422,214.0567,64.3417z"/>
	<path d="M213.2715,25.7518c-0.6889-0.7402-1.3383-1.4751-1.9292-2.2065l-1.5551,1.2583c0.6279,0.7769,1.3076,1.5469,2.0224,2.313
		L213.2715,25.7518z"/>
	<path d="M129.252,179.7431c0.9907,0.1757,2.0103,0.3193,3.0376,0.4355l0.2227-1.9863v-0.003
		c-0.9908-0.1074-1.9664-0.247-2.9073-0.415L129.252,179.7431z"/>
	<path d="M118.4185,173.5419c0.4302,1.0849,1.1548,2.0039,2.0601,2.7646l1.2871-1.5332c-0.7036-0.5927-1.1978-1.2412-1.4898-1.9717
		L118.4185,173.5419z"/>
	<path d="M124.0269,163.0526l-1.5298-1.2871c-0.7187,0.8535-1.3428,1.6729-1.8828,2.459l1.6499,1.1289
		C122.7603,164.6308,123.3472,163.8632,124.0269,163.0526z"/>
	<path d="M150.2764,178.1308v-0.002c-0.0019,0.002-1.1177,0.1211-2.9497,0.2383l0.1284,1.997
		c1.8662-0.121,3.024-0.2451,3.0357-0.247L150.2764,178.1308z"/>
	<path d="M126.7696,177.1366c-0.9741-0.2715-1.8789-0.5889-2.6841-0.9521l-0.8218,1.8222c0.9185,0.4141,1.9151,0.7617,2.9683,1.0567
		L126.7696,177.1366z"/>
	<path d="M120.0279,170.3671c0.1045-0.751,0.3613-1.6045,0.8096-2.5635l-1.8096-0.8496c-0.5196,1.1064-0.8433,2.1484-0.981,3.1377
		L120.0279,170.3671z"/>
	<path d="M126.4195,157.245c-0.6001,0.7334-1.2359,1.4854-1.9185,2.2578l1.4995,1.3223c0.6983-0.7891,1.3516-1.5615,1.9683-2.3154
		L126.4195,157.245z"/>
	<path d="M141.4029,180.5907c1.0683-0.0098,2.0845-0.0361,3.0278-0.0723l-0.0766-1.999c-0.9239,0.0342-1.9239,0.0596-2.9708,0.0703
		L141.4029,180.5907z"/>
	<path d="M133.7242,136.5224c0.3008,0.7714,0.5244,1.6464,0.6245,2.6455l1.9907-0.1983c-0.1177-1.1797-0.3872-2.2383-0.749-3.1719
		L133.7242,136.5224z"/>
	<path d="M135.3311,180.4403c1.0234,0.0635,2.04,0.1055,3.0371,0.127l0.0444-1.9971l0.002-0.0019
		c-0.9736-0.0215-1.9658-0.0616-2.9609-0.1241L135.3311,180.4403z"/>
	<path d="M131.6294,130.663l-1.1787,1.6172c0.5523,0.4013,1.2744,1.0214,1.9453,1.8896l1.5816-1.2236
		C133.1631,131.8953,132.3008,131.1517,131.6294,130.663z"/>
	<path d="M131.4253,149.9999l1.751,0.9697c0.5313-0.958,0.9878-1.8808,1.3755-2.7676l-1.831-0.8007
		C132.3584,148.2273,131.9297,149.0917,131.4253,149.9999z"/>
	<path d="M128.23,154.9159l1.6089,1.1885c0.6358-0.8594,1.2163-1.6953,1.7486-2.5069l-1.6749-1.0937
		C129.4039,153.2811,128.8462,154.0839,128.23,154.9159z"/>
	<path d="M136.2867,142.1815l-1.9844-0.2431c-0.1045,0.8515-0.293,1.7754-0.5889,2.7675l1.917,0.5694
		C135.9551,144.1835,136.169,143.1513,136.2867,142.1815z"/>
	<path d="M318.6753,39.7333c-0.5488-0.771-0.9121-1.5449-1.0927-2.3316l-1.9473,0.4483c0.2461,1.0791,0.7363,2.0952,1.4121,3.0439
		L318.6753,39.7333z"/>
	<path d="M364.437,73.1718c0.8466-0.6289,1.6523-1.2681,2.4072-1.9092l-1.2988-1.5235c-0.7129,0.6099-1.4864,1.2193-2.3008,1.8272
		l1.1924,1.603V73.1718z"/>
	<path d="M368.3199,57.9335c-0.8418-0.4175-1.8203-0.7925-2.9541-1.1323l-0.5723,1.917c1.0469,0.3125,1.9209,0.6528,2.6397,1.0073
		L368.3199,57.9335z"/>
	<path d="M362.3842,56.0619c-0.9648-0.2144-1.9424-0.4302-2.9297-0.6514l-0.4375,1.9507c0.9903,0.2227,1.9717,0.439,2.9346,0.6533
		L362.3842,56.0619z"/>
	<path d="M356.5308,54.7489c-0.9687-0.2202-1.9443-0.4453-2.9209-0.6738l-0.459,1.9458c0.9844,0.2309,1.9619,0.456,2.9326,0.6782
		L356.5308,54.7489z"/>
	<path d="M353.1949,77.9115l0.9707,1.7476c0.8633-0.4781,1.7451-0.981,2.6328-1.501l-1.0127-1.7251
		C354.9126,76.9447,354.0455,77.4393,353.1949,77.9115z"/>
	<path d="M333.4947,48.4169c-0.9541-0.3423-1.8819-0.6904-2.7774-1.0474l-0.7402,1.8589c0.9199,0.3672,1.8691,0.7241,2.8418,1.0718
		l0.6738-1.8833H333.4947z"/>
	<path d="M369.1099,69.1322c0.7861-0.8276,1.459-1.6626,1.9834-2.5068l-1.6953-1.0591c-0.4316,0.6953-1.0205,1.4346-1.7393,2.1909
		L369.1099,69.1322z"/>
	<path d="M339.1519,50.2723c-0.9629-0.292-1.9121-0.5884-2.8418-0.8926l-0.6221,1.9004c0.9444,0.3086,1.9073,0.6108,2.8848,0.9067
		l0.5791-1.9126V50.2723z"/>
	<path d="M370.2652,63.2513l1.9961,0.1357c0.0068-0.1128,0.0107-0.228,0.0127-0.3408c0.0058-1.1109-0.4151-2.2173-1.2276-3.1348
		l-1.5048,1.3179c0.5322,0.6167,0.7255,1.1748,0.7304,1.8193C370.2719,63.1137,370.2701,63.1825,370.2652,63.2513z"/>
	<path d="M325.3521,44.9286l-0.9355,1.769c0.871,0.4615,1.7919,0.9078,2.7529,1.3418l0.8242-1.8212
		C327.065,45.7987,326.1812,45.369,325.3521,44.9286z"/>
	<path d="M327.2417,24.8139l-1.0839-1.6827c-0.9034,0.5806-1.7432,1.1529-2.5225,1.7188l1.1738,1.6196
		C325.5552,25.9271,326.3658,25.3759,327.2417,24.8139z"/>
	<path d="M322.5074,28.2699l-1.2949-1.5239c-0.8526,0.7231-1.6045,1.4375-2.2608,2.1406l1.4629,1.3648
		C321.0113,29.6102,321.7065,28.9511,322.5074,28.2699z"/>
	<path d="M319.2359,43.2601c0.748,0.6539,1.5898,1.2764,2.5137,1.878l1.0898-1.6773c-0.8584-0.5576-1.625-1.1279-2.29-1.7085
		L319.2359,43.2601z"/>
	<path d="M318.6861,32.4608l-1.6944-1.0649c-0.6386,1.0176-1.081,2.0288-1.3222,3.0312l1.9433,0.4683
		C317.7964,34.1356,318.1421,33.3256,318.6861,32.4608z"/>
	<path d="M350.6978,53.3793v-0.002c-0.9678-0.2353-1.9404-0.4765-2.9043-0.7202l-0.4912,1.9375
		c0.9727,0.2481,1.9482,0.4893,2.9238,0.7271L350.6978,53.3793z"/>
	<path d="M344.899,51.9032c-0.9688-0.2583-1.9307-0.5229-2.8819-0.792l-0.5429,1.9238c0.9599,0.2725,1.9306,0.5396,2.9091,0.7999
		L344.899,51.9032z"/>
	<path d="M347.9135,80.7108l0.9033,1.7852c0.837-0.4248,1.7403-0.8911,2.6866-1.3921l-0.9346-1.7666
		C349.6324,79.8319,348.7408,80.2933,347.9135,80.7108z"/>
	<polygon points="343.3452,85.1371 343.3443,85.1361 343.3433,85.1371 	"/>
	<path d="M343.3443,85.1361c0.0478-0.0195,1.0918-0.4912,2.7607-1.2973l-0.872-1.8008c-1.6768,0.8125-2.7061,1.2734-2.708,1.2734
		L343.3443,85.1361z"/>
	<path d="M359.394,76.5878c0.8613-0.5386,1.7168-1.0923,2.5508-1.6558l-1.1192-1.6577c-0.8115,0.5493-1.6474,1.0898-2.4922,1.6162
		l1.0586,1.6973H359.394z"/>
	<path d="M382.4976,162.2792l1.4219,1.4072c0.6787-0.6865,1.3818-1.457,2.0703-2.3056l-1.5479-1.2608
		C383.7964,160.91,383.1363,161.6317,382.4976,162.2792z"/>
	<path d="M381.6685,103.8383l1.4961,1.3252h0.002c0.624-0.7071,1.2968-1.4317,2.0068-2.1768l-1.4463-1.3823
		C383.0024,102.3646,382.3149,103.1073,381.6685,103.8383z"/>
	<path d="M387.8199,158.8622h0.0019c0.5508-0.8584,1.0635-1.7744,1.5157-2.7422l-1.8165-0.8447
		c-0.4062,0.8789-0.875,1.7158-1.3837,2.5068L387.8199,158.8622z"/>
	<path d="M389.0464,149.8553c-0.0918,0.9521-0.2754,1.873-0.5273,2.7636l1.9238,0.545c0.2842-0.9971,0.4893-2.0372,0.5957-3.1163
		L389.0464,149.8553z"/>
	<polygon points="390.4449,153.1649 390.4429,153.164 390.4429,153.1659 	"/>
	<path d="M384.1734,133.1981l-1.5938,1.209c0.5889,0.7735,1.21,1.5664,1.8711,2.3838l1.5547-1.2578
		C385.356,134.7313,384.7476,133.954,384.1734,133.1981z"/>
	<path d="M391.0445,146.8651c-0.0947-1.0195-0.2871-2.0615-0.586-3.124l-1.9267,0.5449c0.2676,0.9453,0.4365,1.8682,0.5215,2.7656
		l1.9892-0.1865H391.0445z"/>
	<path d="M378.1861,123.1732l-1.8692,0.7154c0.3526,0.9179,0.7774,1.8589,1.2774,2.833l1.7773-0.9141
		C378.9008,124.892,378.5074,124.016,378.1861,123.1732z"/>
	<path d="M375.4106,120.8725l1.9531-0.4175h0.0029c-0.207-0.9649-0.3066-1.8828-0.3134-2.7744l-1.9981,0.0136
		C375.0601,118.7273,375.1792,119.786,375.4106,120.8725z"/>
	<path d="M375.3969,114.496l1.9502,0.438c0.2002-0.8877,0.4971-1.7642,0.8926-2.6475l-1.8281-0.8159
		C375.9702,112.4628,375.6265,113.4677,375.3969,114.496z"/>
	<path d="M379.1109,129.3974c0.5088,0.8256,1.0683,1.6748,1.6777,2.5522l1.6436-1.1426h-0.002
		c-0.5898-0.8481-1.1299-1.6679-1.6172-2.4599L379.1109,129.3974z"/>
	<path d="M389.3501,140.786c-0.4209-0.9033-0.9257-1.8164-1.5195-2.7383l-1.6806,1.0821c0.5468,0.8476,1.0068,1.6836,1.3876,2.501
		L389.3501,140.786z"/>
	<polygon points="379.1539,167.6883 379.1529,167.6873 379.1519,167.6883 	"/>
	<path d="M380.356,164.2587c-1.3584,1.1484-2.29,1.7451-2.29,1.749l1.0869,1.6797c0.0498-0.0332,1.0674-0.6963,2.4941-1.9014
		L380.356,164.2587z"/>
	<path d="M377.9126,108.7093l1.6885,1.0737v-0.002c0.4922-0.7724,1.0528-1.559,1.6817-2.3632l-1.5762-1.231
		C379.0455,107.0331,378.4458,107.87,377.9126,108.7093z"/>
	<path d="M286.6792,44.7919l-1.9882-0.2315c-0.1065,0.9297-0.252,1.9053-0.4453,2.8931l1.9638,0.3853
		C286.4126,46.7903,286.5669,45.765,286.6792,44.7919z"/>
	<path d="M285.4693,50.8505l-1.916-0.5781c-0.2783,0.9243-0.6075,1.8315-0.9951,2.6914l1.8222,0.8242
		C284.8111,52.8349,285.1685,51.8466,285.4693,50.8505z"/>
	<path d="M286.9878,39.391c-0.0029-0.2754-0.0048-0.52-0.0087-0.7334l-1.9981,0.0357c0.002,0.2031,0.0039,0.437,0.0068,0.7001
		c0,0.6084-0.0136,1.3687-0.0556,2.2383l1.999,0.0972C286.9722,40.8236,286.9859,40.0287,286.9878,39.391z"/>
	<path d="M259.983,58.2923l0.2275-1.9883c-0.5361-0.061-1.0566-0.0899-1.5566-0.0894c-0.5879,0.001-1.1553,0.043-1.6963,0.1245
		l0.3027,1.9776c0.4365-0.0669,0.9004-0.1011,1.3955-0.1035C259.0757,58.2128,259.5171,58.2391,259.983,58.2923z"/>
	<path d="M246.9976,75.7293c0,0.5718,0.0098,1.1245,0.0274,1.6567l2-0.0581h-0.002c-0.0156-0.5156-0.0244-1.0503-0.0244-1.6011
		c-0.001-0.4409,0.0049-0.8901,0.0146-1.3481l-1.999-0.0493C247.0035,74.806,246.9966,75.2719,246.9976,75.7293z"/>
	<path d="M254.772,59.1498l-0.9697-1.7485c-0.9922,0.5498-1.8467,1.2714-2.5752,2.1069l1.5088,1.313
		C253.3296,60.1415,254.0005,59.5795,254.772,59.1498z"/>
	<path d="M248.3003,65.1732l1.9151,0.5733c0.2812-0.9361,0.6211-1.8247,1.0224-2.6348l-1.79-0.8906
		C248.9849,63.1532,248.6089,64.1433,248.3003,65.1732z"/>
	<path d="M247.1871,71.267l1.9912,0.1821c0.0888-0.9678,0.2119-1.9409,0.3808-2.8935l-1.9707-0.3477
		C247.4107,69.225,247.2789,70.2518,247.1871,71.267z"/>
	<path d="M274.7125,61.5419c1.1494-0.127,2.205-0.4102,3.165-0.8213l-0.7852-1.8379c-0.7802,0.332-1.6406,0.5654-2.6035,0.6738
		L274.7125,61.5419z"/>
	<path d="M247.19,80.4325c0.1475,1.8569,0.3262,3.0371,0.3281,3.0557l1.9795-0.2984h-0.0019c0-0.0044-0.169-1.1181-0.3125-2.9155
		L247.19,80.4325z"/>
	<path d="M279.3628,57.4613l1.3018,1.5166c0.8252-0.7095,1.541-1.5283,2.1592-2.4175l-1.6406-1.143
		C280.646,56.1863,280.0424,56.8763,279.3628,57.4613z"/>
	<path d="M268.4019,60.8953c1.0879,0.3071,2.1172,0.5132,3.0947,0.626l0.2295-1.9883c-0.8613-0.0981-1.7861-0.2817-2.7803-0.562
		l-0.5419,1.9243H268.4019z"/>
	<path d="M262.7417,58.8729v0.002c0.7754,0.229,1.5977,0.5244,2.4678,0.8896c0.085,0.0376,0.1699,0.0723,0.2549,0.1075
		l0.7598-1.8496c-0.0782-0.0333-0.1592-0.0665-0.2403-0.1016c-0.9306-0.3906-1.8193-0.71-2.6709-0.9639L262.7417,58.8729z"/>
</g>
</svg>
